<mxfile host="app.diagrams.net" modified="2022-01-31T19:54:37.836Z" agent="5.0 (Macintosh; Intel Mac OS X 10_15_7) AppleWebKit/605.1.15 (KHTML, like Gecko) Version/15.3 Safari/605.1.15" etag="bXzw7F6sJWAbcOoDs_h7" version="16.5.2" type="github">
  <diagram id="ueZrGG5sA9889QBTN8Mw" name="Page-1">
    <mxGraphModel dx="1207" dy="527" grid="1" gridSize="10" guides="1" tooltips="1" connect="1" arrows="1" fold="1" page="1" pageScale="1" pageWidth="827" pageHeight="1169" math="0" shadow="0">
      <root>
        <mxCell id="0" />
        <mxCell id="1" parent="0" />
        <mxCell id="po_6nuUeIaMUueavmUFP-16" style="edgeStyle=orthogonalEdgeStyle;rounded=0;orthogonalLoop=1;jettySize=auto;html=1;exitX=0;exitY=0.5;exitDx=0;exitDy=0;exitPerimeter=0;entryX=0.5;entryY=0;entryDx=0;entryDy=0;" edge="1" parent="1" source="po_6nuUeIaMUueavmUFP-9" target="po_6nuUeIaMUueavmUFP-7">
          <mxGeometry relative="1" as="geometry" />
        </mxCell>
        <mxCell id="po_6nuUeIaMUueavmUFP-9" value="" style="whiteSpace=wrap;html=1;shape=mxgraph.basic.document;fillColor=#3399FF;" vertex="1" parent="1">
          <mxGeometry x="364" y="40" width="100" height="100" as="geometry" />
        </mxCell>
        <mxCell id="po_6nuUeIaMUueavmUFP-1" value="Transaction Maker" style="swimlane;fillColor=#3399FF;" vertex="1" parent="1">
          <mxGeometry x="80" y="255" width="200" height="215" as="geometry" />
        </mxCell>
        <mxCell id="po_6nuUeIaMUueavmUFP-7" value="Docker container" style="swimlane;fillColor=#3399FF;" vertex="1" parent="1">
          <mxGeometry x="40" y="230" width="280" height="250" as="geometry" />
        </mxCell>
        <mxCell id="po_6nuUeIaMUueavmUFP-2" value="Env Variables" style="swimlane;fontStyle=0;childLayout=stackLayout;horizontal=1;startSize=30;horizontalStack=0;resizeParent=1;resizeParentMax=0;resizeLast=0;collapsible=1;marginBottom=0;fillColor=#3399FF;" vertex="1" parent="po_6nuUeIaMUueavmUFP-7">
          <mxGeometry x="50" y="60" width="180" height="170" as="geometry" />
        </mxCell>
        <mxCell id="po_6nuUeIaMUueavmUFP-3" value="USER_SAVE_URI" style="text;strokeColor=none;fillColor=none;align=left;verticalAlign=middle;spacingLeft=4;spacingRight=4;overflow=hidden;points=[[0,0.5],[1,0.5]];portConstraint=eastwest;rotatable=0;" vertex="1" parent="po_6nuUeIaMUueavmUFP-2">
          <mxGeometry y="30" width="180" height="30" as="geometry" />
        </mxCell>
        <mxCell id="po_6nuUeIaMUueavmUFP-4" value="ACCOUNTT_SAVE_URI" style="text;strokeColor=none;fillColor=none;align=left;verticalAlign=middle;spacingLeft=4;spacingRight=4;overflow=hidden;points=[[0,0.5],[1,0.5]];portConstraint=eastwest;rotatable=0;" vertex="1" parent="po_6nuUeIaMUueavmUFP-2">
          <mxGeometry y="60" width="180" height="30" as="geometry" />
        </mxCell>
        <mxCell id="po_6nuUeIaMUueavmUFP-5" value="TRANSACTION_SAVE_URI&#xa;&#xa;POOL_SIZE&#xa;&#xa;ACCOUNT_NO&#xa;&#xa;TRANSACTION_NO" style="text;strokeColor=none;fillColor=none;align=left;verticalAlign=middle;spacingLeft=4;spacingRight=4;overflow=hidden;points=[[0,0.5],[1,0.5]];portConstraint=eastwest;rotatable=0;" vertex="1" parent="po_6nuUeIaMUueavmUFP-2">
          <mxGeometry y="90" width="180" height="80" as="geometry" />
        </mxCell>
        <mxCell id="po_6nuUeIaMUueavmUFP-24" style="edgeStyle=orthogonalEdgeStyle;rounded=0;orthogonalLoop=1;jettySize=auto;html=1;entryX=0.5;entryY=0;entryDx=0;entryDy=0;" edge="1" parent="1" source="po_6nuUeIaMUueavmUFP-8" target="po_6nuUeIaMUueavmUFP-18">
          <mxGeometry relative="1" as="geometry" />
        </mxCell>
        <mxCell id="po_6nuUeIaMUueavmUFP-8" value="" style="shape=image;html=1;verticalAlign=top;verticalLabelPosition=bottom;labelBackgroundColor=#ffffff;imageAspect=0;aspect=fixed;image=https://cdn0.iconfinder.com/data/icons/social-media-2104/24/social_media_social_media_logo_docker-128.png;fillColor=#3399FF;" vertex="1" parent="1">
          <mxGeometry x="375" y="51" width="78" height="78" as="geometry" />
        </mxCell>
        <mxCell id="po_6nuUeIaMUueavmUFP-30" style="edgeStyle=orthogonalEdgeStyle;rounded=0;orthogonalLoop=1;jettySize=auto;html=1;exitX=0.75;exitY=1;exitDx=0;exitDy=0;" edge="1" parent="1" source="po_6nuUeIaMUueavmUFP-18" target="po_6nuUeIaMUueavmUFP-29">
          <mxGeometry relative="1" as="geometry" />
        </mxCell>
        <mxCell id="po_6nuUeIaMUueavmUFP-18" value="Docker container" style="swimlane;fillColor=#3399FF;" vertex="1" parent="1">
          <mxGeometry x="510" y="230" width="270" height="250" as="geometry" />
        </mxCell>
        <mxCell id="po_6nuUeIaMUueavmUFP-19" value="Accountancy" style="swimlane;fillColor=#3399FF;" vertex="1" parent="po_6nuUeIaMUueavmUFP-18">
          <mxGeometry x="10" y="25" width="250" height="215" as="geometry" />
        </mxCell>
        <mxCell id="po_6nuUeIaMUueavmUFP-20" value="Env Variables" style="swimlane;fontStyle=0;childLayout=stackLayout;horizontal=1;startSize=30;horizontalStack=0;resizeParent=1;resizeParentMax=0;resizeLast=0;collapsible=1;marginBottom=0;fillColor=#3399FF;" vertex="1" parent="po_6nuUeIaMUueavmUFP-19">
          <mxGeometry x="15" y="35" width="220" height="120" as="geometry" />
        </mxCell>
        <mxCell id="po_6nuUeIaMUueavmUFP-21" value="SPRING_DATASOURCE_URL" style="text;strokeColor=none;fillColor=none;align=left;verticalAlign=middle;spacingLeft=4;spacingRight=4;overflow=hidden;points=[[0,0.5],[1,0.5]];portConstraint=eastwest;rotatable=0;" vertex="1" parent="po_6nuUeIaMUueavmUFP-20">
          <mxGeometry y="30" width="220" height="30" as="geometry" />
        </mxCell>
        <mxCell id="po_6nuUeIaMUueavmUFP-22" value="SPIRN_DATASOURCE_USERNAME&#xa;&#xa;SPRING_DATASOURCE_PASSWORD" style="text;strokeColor=none;fillColor=none;align=left;verticalAlign=middle;spacingLeft=4;spacingRight=4;overflow=hidden;points=[[0,0.5],[1,0.5]];portConstraint=eastwest;rotatable=0;" vertex="1" parent="po_6nuUeIaMUueavmUFP-20">
          <mxGeometry y="60" width="220" height="60" as="geometry" />
        </mxCell>
        <mxCell id="po_6nuUeIaMUueavmUFP-25" value="Docker container" style="swimlane;fillColor=#3399FF;" vertex="1" parent="1">
          <mxGeometry x="414" y="585" width="160" height="150" as="geometry" />
        </mxCell>
        <mxCell id="po_6nuUeIaMUueavmUFP-26" value="" style="shape=datastore;whiteSpace=wrap;html=1;fillColor=#3399FF;" vertex="1" parent="po_6nuUeIaMUueavmUFP-25">
          <mxGeometry x="50" y="50" width="60" height="60" as="geometry" />
        </mxCell>
        <mxCell id="po_6nuUeIaMUueavmUFP-27" value="accountancy&lt;br&gt;" style="text;html=1;strokeColor=none;fillColor=none;align=center;verticalAlign=middle;whiteSpace=wrap;rounded=0;" vertex="1" parent="po_6nuUeIaMUueavmUFP-25">
          <mxGeometry x="50" y="110" width="60" height="30" as="geometry" />
        </mxCell>
        <mxCell id="po_6nuUeIaMUueavmUFP-28" value="" style="endArrow=classic;startArrow=classic;html=1;rounded=0;exitX=0.5;exitY=0;exitDx=0;exitDy=0;entryX=0.5;entryY=1;entryDx=0;entryDy=0;" edge="1" parent="1" source="po_6nuUeIaMUueavmUFP-25" target="po_6nuUeIaMUueavmUFP-18">
          <mxGeometry width="50" height="50" relative="1" as="geometry">
            <mxPoint x="550" y="550" as="sourcePoint" />
            <mxPoint x="600" y="500" as="targetPoint" />
            <Array as="points">
              <mxPoint x="494" y="520" />
              <mxPoint x="645" y="520" />
            </Array>
          </mxGeometry>
        </mxCell>
        <mxCell id="po_6nuUeIaMUueavmUFP-29" value="" style="sketch=0;pointerEvents=1;shadow=0;dashed=0;html=1;strokeColor=none;labelPosition=center;verticalLabelPosition=bottom;verticalAlign=top;outlineConnect=0;align=center;shape=mxgraph.office.concepts.folder;fillColor=#2072B8;" vertex="1" parent="1">
          <mxGeometry x="700" y="610" width="80" height="72" as="geometry" />
        </mxCell>
        <mxCell id="po_6nuUeIaMUueavmUFP-31" value="Results&lt;br&gt;" style="text;html=1;strokeColor=none;fillColor=none;align=center;verticalAlign=middle;whiteSpace=wrap;rounded=0;" vertex="1" parent="1">
          <mxGeometry x="710" y="690" width="60" height="30" as="geometry" />
        </mxCell>
        <mxCell id="po_6nuUeIaMUueavmUFP-32" value="" style="endArrow=classic;html=1;rounded=0;exitX=1;exitY=0.5;exitDx=0;exitDy=0;entryX=0;entryY=0.5;entryDx=0;entryDy=0;" edge="1" parent="1" source="po_6nuUeIaMUueavmUFP-7" target="po_6nuUeIaMUueavmUFP-18">
          <mxGeometry relative="1" as="geometry">
            <mxPoint x="364" y="354.29" as="sourcePoint" />
            <mxPoint x="464" y="354.29" as="targetPoint" />
          </mxGeometry>
        </mxCell>
        <mxCell id="po_6nuUeIaMUueavmUFP-33" value="Save data" style="edgeLabel;resizable=0;html=1;align=center;verticalAlign=middle;fillColor=#3399FF;" connectable="0" vertex="1" parent="po_6nuUeIaMUueavmUFP-32">
          <mxGeometry relative="1" as="geometry" />
        </mxCell>
        <mxCell id="po_6nuUeIaMUueavmUFP-34" value="x POOL_SIZE" style="text;html=1;strokeColor=none;fillColor=none;align=center;verticalAlign=middle;whiteSpace=wrap;rounded=0;" vertex="1" parent="1">
          <mxGeometry x="384" y="370" width="60" height="30" as="geometry" />
        </mxCell>
      </root>
    </mxGraphModel>
  </diagram>
</mxfile>
